<svg width="374" height="63" viewBox="0 0 374 63" fill="none" xmlns="http://www.w3.org/2000/svg">
<path d="M5.3 13.4H9.4V37.5H9.6L22.7 24.7H27.4L17.7 34.35L28.7 49H24.1L15.15 36.85L9.4 42.4V49H5.3V13.4ZM33.4305 36.9C33.4305 34.9 33.7805 33.1167 34.4805 31.55C35.1805 29.95 36.0971 28.6 37.2305 27.5C38.3971 26.4 39.7138 25.5667 41.1805 25C42.6805 24.4 44.2138 24.1 45.7805 24.1C47.5138 24.1 49.0638 24.3833 50.4305 24.95C51.7971 25.4833 52.9471 26.25 53.8805 27.25C54.8471 28.25 55.5805 29.45 56.0805 30.85C56.5805 32.25 56.8305 33.8 56.8305 35.5C56.8305 35.9333 56.8138 36.3667 56.7805 36.8C56.7805 37.2 56.7471 37.55 56.6805 37.85H37.6805C37.7138 39.15 37.9638 40.3167 38.4305 41.35C38.9305 42.3833 39.5805 43.2667 40.3805 44C41.2138 44.7333 42.1805 45.3 43.2805 45.7C44.4138 46.1 45.6471 46.3 46.9805 46.3C48.4138 46.3 49.7138 46.1 50.8805 45.7C52.0805 45.3 53.2471 44.75 54.3805 44.05L55.8305 46.75C54.6305 47.5167 53.2638 48.1833 51.7305 48.75C50.1971 49.3167 48.4471 49.6 46.4805 49.6C44.6805 49.6 42.9805 49.3167 41.3805 48.75C39.8138 48.15 38.4305 47.3167 37.2305 46.25C36.0638 45.15 35.1305 43.8167 34.4305 42.25C33.7638 40.6833 33.4305 38.9 33.4305 36.9ZM53.0305 34.9C53.0305 32.4667 52.3971 30.6 51.1305 29.3C49.8638 28 48.0971 27.35 45.8305 27.35C44.8305 27.35 43.8638 27.5167 42.9305 27.85C42.0305 28.1833 41.2138 28.6833 40.4805 29.35C39.7471 29.9833 39.1305 30.7667 38.6305 31.7C38.1305 32.6333 37.7971 33.7 37.6305 34.9H53.0305ZM63.4109 36.9C63.4109 34.9 63.7609 33.1167 64.4609 31.55C65.1609 29.95 66.0776 28.6 67.2109 27.5C68.3776 26.4 69.6943 25.5667 71.1609 25C72.6609 24.4 74.1943 24.1 75.7609 24.1C77.4943 24.1 79.0443 24.3833 80.4109 24.95C81.7776 25.4833 82.9276 26.25 83.8609 27.25C84.8276 28.25 85.5609 29.45 86.0609 30.85C86.5609 32.25 86.8109 33.8 86.8109 35.5C86.8109 35.9333 86.7943 36.3667 86.7609 36.8C86.7609 37.2 86.7276 37.55 86.6609 37.85H67.6609C67.6943 39.15 67.9443 40.3167 68.4109 41.35C68.9109 42.3833 69.5609 43.2667 70.3609 44C71.1943 44.7333 72.1609 45.3 73.2609 45.7C74.3943 46.1 75.6276 46.3 76.9609 46.3C78.3943 46.3 79.6943 46.1 80.8609 45.7C82.0609 45.3 83.2276 44.75 84.3609 44.05L85.8109 46.75C84.6109 47.5167 83.2443 48.1833 81.7109 48.75C80.1776 49.3167 78.4276 49.6 76.4609 49.6C74.6609 49.6 72.9609 49.3167 71.3609 48.75C69.7943 48.15 68.4109 47.3167 67.2109 46.25C66.0443 45.15 65.1109 43.8167 64.4109 42.25C63.7443 40.6833 63.4109 38.9 63.4109 36.9ZM83.0109 34.9C83.0109 32.4667 82.3776 30.6 81.1109 29.3C79.8443 28 78.0776 27.35 75.8109 27.35C74.8109 27.35 73.8443 27.5167 72.9109 27.85C72.0109 28.1833 71.1943 28.6833 70.4609 29.35C69.7276 29.9833 69.1109 30.7667 68.6109 31.7C68.1109 32.6333 67.7776 33.7 67.6109 34.9H83.0109ZM98.6914 51.05V59.25H94.5914V24.7H97.9914L98.3414 27.8H98.4914C99.6247 26.7333 100.925 25.85 102.391 25.15C103.891 24.45 105.391 24.1 106.891 24.1C108.525 24.1 109.958 24.4 111.191 25C112.458 25.5667 113.508 26.4 114.341 27.5C115.208 28.5667 115.858 29.8667 116.291 31.4C116.725 32.9 116.941 34.6 116.941 36.5C116.941 38.5667 116.641 40.4167 116.041 42.05C115.441 43.65 114.625 45.0167 113.591 46.15C112.591 47.2833 111.425 48.15 110.091 48.75C108.758 49.3167 107.358 49.6 105.891 49.6C104.758 49.6 103.525 49.3333 102.191 48.8C100.891 48.2333 99.6914 47.45 98.5914 46.45L98.6914 51.05ZM98.6914 43.3C99.8581 44.3333 101.025 45.0667 102.191 45.5C103.358 45.9333 104.358 46.15 105.191 46.15C107.391 46.15 109.191 45.3 110.591 43.6C111.991 41.9 112.691 39.5333 112.691 36.5C112.691 35.1667 112.558 33.95 112.291 32.85C112.025 31.75 111.608 30.8167 111.041 30.05C110.508 29.25 109.808 28.6333 108.941 28.2C108.075 27.7667 107.041 27.55 105.841 27.55C104.775 27.55 103.625 27.85 102.391 28.45C101.191 29.0167 99.9581 29.9333 98.6914 31.2V43.3ZM123.972 42.7C123.972 41.3333 124.289 40.15 124.922 39.15C125.589 38.1167 126.622 37.2333 128.022 36.5C129.455 35.7667 131.289 35.1667 133.522 34.7C135.755 34.2333 138.439 33.8667 141.572 33.6C141.539 32.7667 141.405 31.9833 141.172 31.25C140.939 30.5167 140.572 29.8833 140.072 29.35C139.572 28.7833 138.905 28.3333 138.072 28C137.272 27.6667 136.289 27.5 135.122 27.5C133.522 27.5 131.989 27.8167 130.522 28.45C129.055 29.05 127.755 29.7 126.622 30.4L125.022 27.6C125.622 27.2 126.322 26.8 127.122 26.4C127.955 25.9667 128.822 25.5833 129.722 25.25C130.655 24.9167 131.639 24.65 132.672 24.45C133.705 24.2167 134.755 24.1 135.822 24.1C139.155 24.1 141.622 25.0167 143.222 26.85C144.855 28.65 145.672 31.0667 145.672 34.1V49H142.322L141.972 45.7H141.822C140.455 46.7667 138.939 47.6833 137.272 48.45C135.639 49.2167 133.955 49.6 132.222 49.6C131.089 49.6 130.022 49.4333 129.022 49.1C128.022 48.8 127.139 48.3667 126.372 47.8C125.639 47.2 125.055 46.4833 124.622 45.65C124.189 44.7833 123.972 43.8 123.972 42.7ZM127.972 42.4C127.972 43.1 128.122 43.7 128.422 44.2C128.722 44.6667 129.105 45.0667 129.572 45.4C130.072 45.7 130.639 45.9333 131.272 46.1C131.939 46.2333 132.622 46.3 133.322 46.3C134.722 46.3 136.089 46 137.422 45.4C138.789 44.7667 140.172 43.8667 141.572 42.7V36.3C138.972 36.5 136.789 36.7833 135.022 37.15C133.289 37.5167 131.889 37.9667 130.822 38.5C129.789 39 129.055 39.5833 128.622 40.25C128.189 40.8833 127.972 41.6 127.972 42.4ZM155.502 43.1C156.869 44.1 158.336 44.9 159.902 45.5C161.469 46.1 163.352 46.4 165.552 46.4C167.752 46.4 169.386 46.0333 170.452 45.3C171.519 44.5667 172.052 43.6667 172.052 42.6C172.052 41.6667 171.469 40.8333 170.302 40.1C169.169 39.3667 167.119 38.6333 164.152 37.9C162.886 37.6 161.686 37.2333 160.552 36.8C159.452 36.3667 158.486 35.8667 157.652 35.3C156.819 34.7 156.152 34.05 155.652 33.35C155.152 32.65 154.902 31.8667 154.902 31C154.902 30.0333 155.119 29.1333 155.552 28.3C155.986 27.4333 156.619 26.7 157.452 26.1C158.319 25.4667 159.386 24.9833 160.652 24.65C161.952 24.2833 163.436 24.1 165.102 24.1C166.936 24.1 168.719 24.4167 170.452 25.05C172.186 25.65 173.652 26.3667 174.852 27.2L172.852 29.85C171.786 29.0833 170.602 28.4667 169.302 28C168.002 27.5333 166.602 27.3 165.102 27.3C163.969 27.3 163.019 27.4 162.252 27.6C161.486 27.7667 160.869 28.0167 160.402 28.35C159.936 28.65 159.602 29.0167 159.402 29.45C159.202 29.8833 159.102 30.3333 159.102 30.8C159.102 31.8 159.786 32.6333 161.152 33.3C162.519 33.9333 164.302 34.5333 166.502 35.1C169.802 35.9333 172.236 36.8833 173.802 37.95C175.402 39.0167 176.202 40.4833 176.202 42.35C176.202 43.35 175.969 44.2833 175.502 45.15C175.036 46.0167 174.336 46.7833 173.402 47.45C172.502 48.1167 171.369 48.6333 170.002 49C168.669 49.4 167.136 49.6 165.402 49.6C163.002 49.6 160.786 49.2333 158.752 48.5C156.752 47.7333 155.002 46.8333 153.502 45.8L155.502 43.1ZM185.483 43.1C186.849 44.1 188.316 44.9 189.883 45.5C191.449 46.1 193.333 46.4 195.533 46.4C197.733 46.4 199.366 46.0333 200.433 45.3C201.499 44.5667 202.033 43.6667 202.033 42.6C202.033 41.6667 201.449 40.8333 200.283 40.1C199.149 39.3667 197.099 38.6333 194.133 37.9C192.866 37.6 191.666 37.2333 190.533 36.8C189.433 36.3667 188.466 35.8667 187.633 35.3C186.799 34.7 186.133 34.05 185.633 33.35C185.133 32.65 184.883 31.8667 184.883 31C184.883 30.0333 185.099 29.1333 185.533 28.3C185.966 27.4333 186.599 26.7 187.433 26.1C188.299 25.4667 189.366 24.9833 190.633 24.65C191.933 24.2833 193.416 24.1 195.083 24.1C196.916 24.1 198.699 24.4167 200.433 25.05C202.166 25.65 203.633 26.3667 204.833 27.2L202.833 29.85C201.766 29.0833 200.583 28.4667 199.283 28C197.983 27.5333 196.583 27.3 195.083 27.3C193.949 27.3 192.999 27.4 192.233 27.6C191.466 27.7667 190.849 28.0167 190.383 28.35C189.916 28.65 189.583 29.0167 189.383 29.45C189.183 29.8833 189.083 30.3333 189.083 30.8C189.083 31.8 189.766 32.6333 191.133 33.3C192.499 33.9333 194.283 34.5333 196.483 35.1C199.783 35.9333 202.216 36.8833 203.783 37.95C205.383 39.0167 206.183 40.4833 206.183 42.35C206.183 43.35 205.949 44.2833 205.483 45.15C205.016 46.0167 204.316 46.7833 203.383 47.45C202.483 48.1167 201.349 48.6333 199.983 49C198.649 49.4 197.116 49.6 195.383 49.6C192.983 49.6 190.766 49.2333 188.733 48.5C186.733 47.7333 184.983 46.8333 183.483 45.8L185.483 43.1Z" fill="black"/>
<path d="M256.575 36.9C256.575 34.9333 256.875 33.1667 257.475 31.6C258.108 30 258.925 28.65 259.925 27.55C260.958 26.45 262.142 25.6 263.475 25C264.808 24.4 266.192 24.1 267.625 24.1C269.125 24.1 270.442 24.3833 271.575 24.95C272.708 25.5167 273.842 26.2833 274.975 27.25L274.825 22.75V13.4H278.925V49H275.525L275.175 45.8H275.025C274.025 46.8333 272.825 47.7333 271.425 48.5C270.058 49.2333 268.625 49.6 267.125 49.6C265.525 49.6 264.075 49.3167 262.775 48.75C261.508 48.1833 260.408 47.3667 259.475 46.3C258.542 45.2 257.825 43.8667 257.325 42.3C256.825 40.7333 256.575 38.9333 256.575 36.9ZM260.825 36.85C260.825 39.7833 261.442 42.0667 262.675 43.7C263.942 45.3333 265.708 46.15 267.975 46.15C270.375 46.15 272.658 44.9333 274.825 42.5V30.4C273.725 29.3667 272.642 28.6333 271.575 28.2C270.542 27.7667 269.492 27.55 268.425 27.55C267.358 27.55 266.358 27.7833 265.425 28.25C264.525 28.6833 263.725 29.3167 263.025 30.15C262.358 30.95 261.825 31.9167 261.425 33.05C261.025 34.1833 260.825 35.45 260.825 36.85ZM288.055 24.7H303.455V49H299.355V28.05H288.055V24.7ZM300.955 19.7C299.989 19.7 299.189 19.4167 298.555 18.85C297.955 18.2833 297.655 17.5167 297.655 16.55C297.655 15.5833 297.955 14.8167 298.555 14.25C299.189 13.65 299.989 13.35 300.955 13.35C301.889 13.35 302.672 13.65 303.305 14.25C303.939 14.8167 304.255 15.5833 304.255 16.55C304.255 17.5167 303.939 18.2833 303.305 18.85C302.672 19.4167 301.889 19.7 300.955 19.7ZM341.486 17.3C340.486 16.8333 339.553 16.5333 338.686 16.4C337.853 16.2333 336.903 16.15 335.836 16.15C333.636 16.15 332.053 16.7167 331.086 17.85C330.153 18.95 329.686 20.5 329.686 22.5V24.7H339.886V28.05H329.686V49H325.636V28.05H318.686V24.95L325.636 24.7V22.65C325.636 19.6833 326.419 17.3 327.986 15.5C329.586 13.7 332.069 12.8 335.436 12.8C337.836 12.8 340.169 13.2667 342.436 14.2L341.486 17.3ZM371.466 17.3C370.466 16.8333 369.533 16.5333 368.666 16.4C367.833 16.2333 366.883 16.15 365.816 16.15C363.616 16.15 362.033 16.7167 361.066 17.85C360.133 18.95 359.666 20.5 359.666 22.5V24.7H369.866V28.05H359.666V49H355.616V28.05H348.666V24.95L355.616 24.7V22.65C355.616 19.6833 356.4 17.3 357.966 15.5C359.566 13.7 362.05 12.8 365.416 12.8C367.816 12.8 370.15 13.2667 372.416 14.2L371.466 17.3Z" fill="black"/>
<path d="M222 52.75H242" stroke="black" stroke-width="15" stroke-linecap="round" stroke-linejoin="round"/>
<path d="M222 52.75H242" stroke="white" stroke-width="10" stroke-linecap="round" stroke-linejoin="round"/>
<path d="M222 52.75H242" stroke="#D0021B" stroke-width="5" stroke-linecap="round" stroke-linejoin="round"/>
<path d="M231.577 30.75H222H231.577ZM231.577 30.75V20V30.75ZM231.577 30.75H242H231.577ZM231.577 30.75V40V30.75Z" stroke="black" stroke-width="15" stroke-linecap="round" stroke-linejoin="round"/>
<path d="M231.577 30.75H222H231.577ZM231.577 30.75V20V30.75ZM231.577 30.75H242H231.577ZM231.577 30.75V40V30.75Z" stroke="white" stroke-width="10" stroke-linecap="round" stroke-linejoin="round"/>
<path d="M231.577 30.75H222H231.577ZM231.577 30.75V20V30.75ZM231.577 30.75H242H231.577ZM231.577 30.75V40V30.75Z" stroke="#417505" stroke-width="5" stroke-linecap="round" stroke-linejoin="round"/>
</svg>
